<svg width="453" height="805" viewBox="0 0 453 805" fill="none" xmlns="http://www.w3.org/2000/svg">
<rect x="56" width="397" height="805" fill="#062D3E"/>
<g clip-path="url(#clip0_114_2)">
<path d="M149.5 -35.5L21.25 -35.5L20.1944 -28.6404L27.5833 -22.8361L27.0556 -12.2828L35.5 -9.64451L43.4167 -5.42321L41.3056 2.49174L47.1111 8.82369L41.8333 15.6833L40.25 23.0706L43.9444 29.9302L46.5833 36.7898L44.4722 44.7048L45 52.0921L50.2778 58.9517L51.3333 66.339L50.2778 73.7263L51.3333 81.1135L53.9722 88.5008L51.3333 96.4158L49.75 104.331L47.6389 112.246L50.8056 120.688L49.75 128.603L48.1667 136.518L43.9444 143.905L40.7778 151.293L38.1389 158.152L36.0278 165.012L29.1667 169.761L32.3333 178.204L27.5833 184.008L23.8889 191.395L28.6389 199.838L27.0555 207.753L17.5555 211.974L15.9722 219.361L12.8055 226.749L6.47222 231.498L4.3611 239.412L3.30554 246.8L-3.02778 253.132L-6.19446 260.519L-2.50001 268.962L-3.55557 276.349L-5.1389 284.264L-9.8889 290.068L-17.2778 294.817L-15.6945 304.315L-22.5556 309.064L-22.5556 317.507L-24.1389 324.894L-26.7778 331.754L-27.3056 339.668L-35.75 345.473L-29.9445 354.443L-36.8056 361.303L-32.5833 369.218L-33.6389 377.132L-39.4445 383.992L-34.1667 392.435L-36.8056 399.822L-37.3334 407.209L-34.6945 415.124L-39.4445 422.512L-37.3334 430.427L-39.9722 437.814L-34.6945 445.729L-35.2222 453.116L-38.3889 460.503L-40.5 468.418L-36.8056 475.278L-34.6945 482.665L-37.8611 490.58L-32.0556 496.912L-36.8056 505.355L-34.6945 512.214L-33.6389 519.602L-26.25 525.406L-25.1945 533.321L-28.8889 541.763L-27.3056 549.151L-27.3056 557.066L-20.9722 563.925L-21.5 571.84L-24.1389 579.755L-19.3889 587.142L-20.9722 595.057L-19.9167 602.445L-19.9167 603.5L149.5 603.5L149.5 -35.5Z" fill="#062D3E"/>
</g>
<g clip-path="url(#clip1_114_2)">
<path d="M149.5 635.5L21.25 635.5L20.1944 642.36L27.5833 648.164L27.0556 658.717L35.5 661.355L43.4167 665.577L41.3056 673.492L47.1111 679.824L41.8333 686.683L40.25 694.071L43.9444 700.93L46.5833 707.79L44.4722 715.705L45 723.092L50.2778 729.952L51.3333 737.339L50.2778 744.726L51.3333 752.114L53.9722 759.501L51.3333 767.416L49.75 775.331L47.6389 783.246L50.8056 791.688L49.75 799.603L48.1667 807.518L43.9444 814.905L40.7778 822.293L38.1389 829.152L36.0278 836.012L29.1667 840.761L32.3333 849.204L27.5833 855.008L23.8889 862.395L28.6389 870.838L27.0555 878.753L17.5555 882.974L15.9722 890.361L12.8055 897.749L6.47222 902.498L4.3611 910.412L3.30554 917.8L-3.02778 924.132L-6.19446 931.519L-2.50001 939.962L-3.55557 947.349L-5.1389 955.264L-9.8889 961.068L-17.2778 965.817L-15.6945 975.315L-22.5556 980.064L-22.5556 988.507L-24.1389 995.894L-26.7778 1002.75L-27.3056 1010.67L-35.75 1016.47L-29.9445 1025.44L-36.8056 1032.3L-32.5833 1040.22L-33.6389 1048.13L-39.4445 1054.99L-34.1667 1063.43L-36.8056 1070.82L-37.3334 1078.21L-34.6945 1086.12L-39.4445 1093.51L-37.3334 1101.43L-39.9722 1108.81L-34.6945 1116.73L-35.2222 1124.12L-38.3889 1131.5L-40.5 1139.42L-36.8056 1146.28L-34.6945 1153.67L-37.8611 1161.58L-32.0556 1167.91L-36.8056 1176.35L-34.6945 1183.21L-33.6389 1190.6L-26.25 1196.41L-25.1945 1204.32L-28.8889 1212.76L-27.3056 1220.15L-27.3056 1228.07L-20.9722 1234.93L-21.5 1242.84L-24.1389 1250.76L-19.3889 1258.14L-20.9722 1266.06L-19.9167 1273.44L-19.9167 1274.5L149.5 1274.5L149.5 635.5Z" fill="#062D3E"/>
</g>
<defs>
<clipPath id="clip0_114_2">
<rect width="639" height="150" fill="white" transform="translate(150 -36) rotate(90)"/>
</clipPath>
<clipPath id="clip1_114_2">
<rect width="170" height="150" fill="white" transform="translate(150 635) rotate(90)"/>
</clipPath>
</defs>
</svg>
